<svg height="37" viewBox="0 0 37 37" width="37" xmlns="http://www.w3.org/2000/svg"><g fill="none" fill-rule="evenodd"><g fill="#6a6a6a" transform="translate(9 13)"><path d="m0 2.673c0-.441.0774-.8298.2304-1.1682s.3582-.6192.6156-.8442c.2448-.2142.5238-.378.837-.4932.3096-.1116.6246-.1674.9432-.1674s.6336.0558.945.1674c.3114.1152.5958.279.8532.4932.2466.225.4446.5058.5976.8442.1548.3384.2322.7272.2322 1.1682v.5544h-1.5678v-.5544c0-.3798-.1062-.657-.315-.837-.2106-.1782-.459-.2682-.7452-.2682s-.5346.09-.7452.2682c-.2088.18-.315.4572-.315.837v5.7762c0 .378.1062.657.315.837.2106.1782.459.2682.7452.2682s.5346-.09.7452-.2682c.2088-.18.315-.459.315-.837v-2.0592h-1.2456v-1.3824h2.8134v3.4416c0 .4608-.0774.855-.2322 1.1826-.153.3276-.351.5976-.5976.8136-.2574.225-.5418.3942-.8532.5076-.3114.1116-.6264.1674-.945.1674s-.6336-.0558-.9432-.1674c-.3132-.1134-.5922-.2826-.837-.5076-.2574-.216-.4626-.486-.6156-.8136s-.2304-.7218-.2304-1.1826z"/><path d="m6.6357 11.02968v-10.9368h1.5066l2.0106 5.7924h.0324l1.9962-5.7924h1.521v10.9368h-1.566v-6.651h-.0324l-1.5516 4.6998h-.783l-1.5354-4.6998h-.0324v6.651z"/><path d="m16.65 8.4492c0 .378.1062.657.3168.837.2088.1782.459.2682.7434.2682.288 0 .5364-.09.7452-.2682.2106-.18.315-.459.315-.837v-5.7762c0-.3798-.1044-.657-.315-.837-.2088-.1782-.4572-.2682-.7452-.2682-.2844 0-.5346.09-.7434.2682-.2106.18-.3168.4572-.3168.837zm-1.566-5.7762c0-.441.0774-.8298.2304-1.1682.1548-.3384.3582-.6192.6156-.8442.2448-.2142.5256-.378.8352-.4932.3132-.1116.6282-.1674.945-.1674.3186 0 .6318.0558.945.1674.3132.1152.5958.279.8532.4932.2466.225.4446.5058.5994.8442.153.3384.2304.7272.2304 1.1682v5.7762c0 .4608-.0774.855-.2304 1.1826-.1548.3276-.3528.5976-.5994.8136-.2574.225-.54.3942-.8532.5076-.3132.1116-.6264.1674-.945.1674-.3168 0-.6318-.0558-.945-.1674-.3096-.1134-.5904-.2826-.8352-.5076-.2574-.216-.4608-.486-.6156-.8136-.153-.3276-.2304-.7218-.2304-1.1826z"/></g><g stroke="#283333" stroke-linecap="round" stroke-linejoin="round" stroke-width="1.5" transform="translate(1 1)"><path d="m35.1254118 17.5627059c0 9.6990353-7.8636706 17.5627059-17.5627059 17.5627059-9.69903531 0-17.5627059-7.8636706-17.5627059-17.5627059 0-9.69903531 7.86367059-17.5627059 17.5627059-17.5627059 9.6990353 0 17.5627059 7.86367059 17.5627059 17.5627059z"/><path d="m5.26957412 29.8560282 24.58588238-24.58588232"/></g></g></svg>