<svg height="38" viewBox="0 0 38 38" width="38" xmlns="http://www.w3.org/2000/svg"><g fill="none" fill-rule="evenodd" transform="translate(1 1)"><path d="m12.0238105 18.8863579c1.1406316-.828 1.0402106-2.6848421-.036-4.1608421-1.072421-1.4797895-2.8042105-2.1467369-3.94673682-1.3187369-1.13873684.8298948-1.03831579 2.6829474.036 4.1608422 1.07242106 1.4778947 2.80421052 2.1467368 3.94673682 1.3187368m11.8193684 0c1.1406316.828 2.8743158.1591579 3.9467369-1.3187368 1.0743158-1.4778948 1.1728421-3.3309474.0341053-4.1608422-1.1406316-.828-2.8743158-.1610526-3.9467369 1.3187369-1.0743158 1.476-1.1728421 3.3328421-.0341053 4.1608421m-3.4635789-3.276c1.3983158.244421 2.6658947-1.1898947 2.9974737-3.0751579.3334737-1.8833684-.3656842-3.66631579-1.764-3.91263158-1.4002105-.24631579-2.6658948 1.18989474-2.9974737 3.07326318-.3315789 1.8833684.3675789 3.6663158 1.764 3.9145263m-3.1282105-3.9145263c-.331579-1.88336844-1.5991579-3.31957897-2.9974737-3.07326318-1.4002105.24631579-2.0993684 2.02926318-1.7658947 3.91263158.3315789 1.8852632 1.5991578 3.3195789 2.9974736 3.0751579 1.3983158-.2482105 2.0993685-2.0311579 1.7658948-3.9145263m.6821052 14.9305263c.5930527 0 .9416842.0757895 1.512.2823158.0056842.0018947.1477895.0549474.1913685.0701052.5646315.2046316.9606315.2936843 1.5195789.2936843 1.7602105 0 3.2248421-1.5214737 3.2248421-3.5469474 0-3.1661053-3.1623158-6.451579-6.4477895-6.451579-3.2835789 0-6.4496842 3.2854737-6.4496842 6.451579 0 2.1258947 1.4191579 3.5469474 3.2248421 3.5469474.5608421 0 .9568421-.0890527 1.5214737-.2936843.0416842-.0151578.1837895-.0682105.1894737-.0701052.5703158-.2065263.9208421-.2823158 1.5138947-.2823158" fill="#6a6a6a"/><g stroke="#283333" stroke-linecap="round" stroke-linejoin="round" stroke-width="1.5"><path d="m35.3934947 17.9334947c0 9.6423158-7.8176842 17.46-17.46 17.46-9.64421049 0-17.45999996-7.8176842-17.45999996-17.46 0-9.64231575 7.81578947-17.45999996 17.45999996-17.45999996 9.6423158 0 17.46 7.81768421 17.46 17.45999996z"/><path d="m5.71054737 30.1549263 24.44400003-24.44210525"/></g></g></svg>