<svg height="37" viewBox="0 0 37 37" width="37" xmlns="http://www.w3.org/2000/svg"><g fill="none" fill-rule="evenodd"><g fill="#6a6a6a"><path d="m26.7665684 17.7392842c-.9947368-.4793684-2.1221052-.5418947-3.1661052-.1762105-1.044.3637895-1.8833685 1.1141052-2.3627369 2.1107368-.4793684.9985263-.5418947 2.124-.1762105 3.1661053.3637895 1.044 1.1141053 1.8852631 2.1126316 2.3627368.576.2785263 1.1861052.4092632 1.7886315.4092632 1.5404211 0 3.0277895-.864 3.7383158-2.3437895.9909474-2.0576842.1231579-4.5378947-1.9345263-5.5288421"/><path d="m13.2129474 19.2509053c1.0458947-.3656842 1.8833684-1.116 2.3646315-2.1126316.4793685-.9966316.54-2.1202105.1762106-3.1642105-.3656842-1.044-1.116-1.8852632-2.1126316-2.3646316-2.059579-.9871579-4.53600001-.1231579-5.52694737 1.9345263-.47936842.9985263-.54378948 2.1221053-.17621053 3.1661053.36378947 1.044 1.11410526 1.8814736 2.1107368 2.3627368.5703158.2747368 1.1785264.4130526 1.7924211.4130526.4623158 0 .9246316-.0795789 1.3717895-.2349473"/><path d="m16.9857474 21.1623158c-2.052-.9833684-4.536-.1193684-5.5269474 1.9345263l-.0018947.0018947c-.9871579 2.0576843-.1174737 4.5378948 1.936421 5.5269474.5703158.2766316 1.1804211.4130526 1.7943158.4130526.4604211 0 .9227368-.0776842 1.3698947-.2349473 1.0458948-.3656842 1.8852632-1.116 2.3646316-2.1126316.4793684-.9947368.5418948-2.1202105.1762105-3.1642105-.3637894-1.044-1.116-1.8852632-2.1126315-2.3646316"/><path d="m25.3566947 13.7146737c.4793685-.9966316.5418948-2.1221053.1762106-3.1661053-.3637895-1.04399998-1.1141053-1.8833684-2.1107369-2.36273682s-2.124-.54189474-3.1661052-.17810526c-1.044.36568421-1.8852632 1.116-2.3627369 2.11452628-.9909474 2.0557895-.1231579 4.536 1.9345263 5.5269474.5778948.2785263 1.188.4092632 1.7886316.4092632 1.5423158 0 3.0277895-.864 3.7402105-2.3437895"/></g><path d="m35.8666105 18.4071789c0 9.6423158-7.8176842 17.46-17.46 17.46-9.64231576 0-17.45999997-7.8176842-17.45999997-17.46 0-9.64231574 7.81768421-17.45999995 17.45999997-17.45999995 9.6423158 0 17.46 7.81768421 17.46 17.45999995z" stroke="#283333" stroke-linecap="round" stroke-linejoin="round" stroke-width="1.5"/><path d="m6.18536842 30.6286105 24.44210528-24.44210524" stroke="#283333" stroke-linecap="round" stroke-linejoin="round" stroke-width="1.5"/></g></svg>