<svg height="38" viewBox="0 0 38 38" width="38" xmlns="http://www.w3.org/2000/svg"><g fill="none" fill-rule="evenodd" transform="translate(1 1)"><path d="m24.704 22.1235-5.814 3.357c-.2268.1296-.4752.1926-.7182.1926-.4986 0-.981-.2574-1.2492-.72-.396-.6894-.162-1.5696.5274-1.9674l5.814-3.357c.6894-.396 1.5678-.1638 1.9674.5274.3978.6894.162 1.5696-.5274 1.9674zm-10.9098-1.2456c0 .7938-.6426 1.4382-1.4382 1.4382s-1.4418-.6444-1.4418-1.4382v-6.7158c0-.7938.6462-1.44 1.4418-1.44s1.4382.6462 1.4382 1.44zm3.1284-10.7928c.3978-.6894 1.2798-.9252 1.9674-.5274l5.814 3.3588c.6894.396.9252 1.278.5256 1.9674-.2646.4608-.7488.72-1.2474.72-.2448 0-.4914-.063-.7182-.1926l-5.814-3.3588c-.6894-.3978-.9234-1.2798-.5274-1.9674zm10.6956 1.1466-8.7282-5.04c-.4446-.2556-.9954-.2556-1.44 0l-8.73 5.04c-.4446.2574-.72.7326-.72 1.2474v10.08c0 .5148.2754.99.72 1.2474l8.73 5.04c.2214.1278.4716.1926.72.1926s.4968-.0648.72-.1926l8.7282-5.04c.4464-.2574.72-.7326.72-1.2474v-10.08c0-.5148-.2736-.99-.72-1.2474z" fill="#6a6a6a"/><g stroke="#283333" stroke-linecap="round" stroke-linejoin="round" stroke-width="1.5"><path d="m36 18c0 9.9405317-8.0575149 18-18 18-9.94053174 0-18-8.0594683-18-18 0-9.94053174 8.05946826-18 18-18 9.9424851 0 18 8.05946826 18 18z"/><path d="m5.53668125 30.6851187 24.68511875-24.6851187"/></g></g></svg>