<svg height="38" viewBox="0 0 38 38" width="38" xmlns="http://www.w3.org/2000/svg"><g fill="none" fill-rule="evenodd" transform="translate(1 1)"><g transform="matrix(.98480775 .17364818 -.17364818 .98480775 7.821278 2.681943)"><path d="m17.5498899 15.073308c-.9164572 2.1661714-3.4148572 3.1793142-5.58 2.2628571-2.16617144-.9164571-3.1793143-3.4148571-2.26285715-5.5810286.91645715-2.1661714 3.41485715-3.17828569 5.57999995-2.26182855 2.1661715.91542855 3.1793143 3.41485715 2.2628572 5.58000005" fill="#6a6a6a"/><path d="m18.279147 3.50743367c-.2571428 1.66011428-1.8113143 2.79771428-3.4714285 2.54057143-1.6590858-.25611429-2.7966858-1.81028572-2.5405715-3.4704.2571429-1.66011429 1.8113143-2.79771429 3.4714286-2.5416 1.6601143.25714285 2.7977143 1.81131428 2.5405714 3.47142857" fill="#6a6a6a"/><path d="m15.0010899 4.80322795-1.3155429 8.50114285" stroke="#6a6a6a" stroke-width="2"/><path d="m2.91229786 14.3899784c1.55725715-.6315429 3.33051429.1193143 3.96205715 1.6755429.63051428 1.5572571-.12034286 3.3305142-1.67657143 3.9610285-1.55725715.6315429-3.33051429-.1182857-3.96102857-1.6745143-.63154286-1.5572571.11931428-3.3305142 1.67554285-3.9620571" fill="#6a6a6a"/><path d="m5.70620643 16.5390755 7.97245717-3.2328" stroke="#6a6a6a" stroke-width="2"/><path d="m17.7907318 23.2723514c-1.0563429-1.3062857-.8537143-3.2204571.4525714-4.2768s3.2214857-.8537143 4.2778286.4525714c1.0553142 1.3062857.8537142 3.2214857-.4525715 4.2768-1.3062857 1.0563429-3.2214857.8537143-4.2778285-.4525714" fill="#6a6a6a"/><path d="m19.0357146 19.9746485-5.4092571-6.6888" stroke="#6a6a6a" stroke-width="2"/></g><g stroke="#283333" stroke-width="1.5" transform="translate(.51408 .51408)"><path d="m34.9714286 17.4857143c0 9.6572571-7.8284572 17.4857143-17.4857143 17.4857143-9.65725716 0-17.4857143-7.8284572-17.4857143-17.4857143 0-9.65725716 7.82845714-17.4857143 17.4857143-17.4857143 9.6572571 0 17.4857143 7.82845714 17.4857143 17.4857143z"/><path d="m5.10922286 29.86272 24.75257144-24.7536"/></g></g></svg>